<?xml version="1.0" encoding="utf-8"?>
<!-- Generator: Adobe Illustrator 25.2.3, SVG Export Plug-In . SVG Version: 6.00 Build 0)  -->
<svg version="1.1" xmlns="http://www.w3.org/2000/svg" xmlns:xlink="http://www.w3.org/1999/xlink" x="0px" y="0px"
	 viewBox="0 0 500 500" style="enable-background:new 0 0 500 500;" xml:space="preserve">
<style type="text/css">
	.st0{display:none;}
	.st1{fill:#231815;}
	.st2{fill:#050202;}
	.st3{display:inline;fill:#231815;}
	.st4{fill:#E28D56;}
	.st5{fill:#EDAF6E;}
	.st6{fill:#9E5B37;}
</style>
<g id="레이어_4" class="st0">
</g>
<g id="레이어_5" class="st0">
</g>
<g id="레이어_10">
</g>
<g id="레이어_3">
	<path class="st1" d="M235,65.75L220,20H69.87l54.4,165.93c23.84-21.56,53.24-37.09,85.8-44.15L235,65.75z"/>
	<g id="레이어_8">
	</g>
	<path class="st2" d="M209.9,141.82L169.95,20h-49.92l45.15,137.77C179.18,150.66,194.16,145.24,209.9,141.82z"/>
</g>
<g id="레이어_7" class="st0">
	<path class="st3" d="M210.07,141.77L235,65.75L220,20H20l68.67,209.43C114.82,185.38,158.48,152.96,210.07,141.77z"/>
</g>
<g id="레이어_2">
	<path class="st1" d="M250,137.5c48.29,0,92.29,18.27,125.52,48.26L429.87,20H280l-38.59,117.7
		C244.26,137.58,247.12,137.5,250,137.5z"/>
	<g id="레이어_11">
		<path class="st2" d="M329.82,20l-39.87,121.77c15.81,3.43,30.86,8.87,44.91,16.01L380.06,20H329.82z"/>
	</g>
</g>
<g id="레이어_6" class="st0">
	<path class="st3" d="M250,137.5c68.64,0,128.66,36.9,161.33,91.93L480,20H280l-38.59,117.7C244.26,137.58,247.12,137.5,250,137.5z"
		/>
</g>
<g id="레이어_1">
	<circle class="st4" cx="250" cy="325" r="162.5"/>
	<g id="레이어_9">
		<path class="st5" d="M91.3,360.06c2.77,12.59,6.99,24.64,12.5,35.95l216.73-217.45c-10.99-5.3-22.67-9.4-34.87-12.13L91.3,360.06z
			"/>
		<path class="st5" d="M114.36,235.51c-14.78,22.36-24.19,48.57-26.37,76.82l149.03-149.31c-28.55,2.26-55.03,11.89-77.52,27
			L114.36,235.51z"/>
		<path class="st5" d="M250,487.5c89.75,0,162.5-72.75,162.5-162.5c0-25.48-5.87-49.58-16.32-71.05L178.83,471.12
			C200.32,481.61,224.47,487.5,250,487.5z"/>
	</g>
	<path class="st6" d="M206.21,371.14c9.7,7.23,20.9,10.84,33.59,10.84c8.33,0,15.04-1.9,20.12-5.71s7.62-9.26,7.62-16.36
		c0-14.91-11.26-22.36-33.79-22.36h-12.7v-21.29h11.82c20.18,0,30.27-6.97,30.27-20.9c0-13.02-7.75-19.53-23.24-19.53
		c-9.7,0-19.11,3.19-28.22,9.57v-22.95c9.77-5.21,21.29-7.81,34.57-7.81c13.22,0,23.96,3.13,32.23,9.38
		c8.27,6.25,12.4,14.91,12.4,25.98c0,18.69-9.54,30.53-28.61,35.55v0.39c9.96,1.04,17.97,4.7,24.02,10.99
		c6.05,6.28,9.08,13.88,9.08,22.8c0,13.61-4.93,24.27-14.79,31.98s-22.93,11.57-39.21,11.57c-14.32,0-26.04-2.47-35.16-7.42V371.14z
		"/>
</g>
</svg>
