<?xml version="1.0" encoding="utf-8"?>
<!-- Generator: Adobe Illustrator 25.2.3, SVG Export Plug-In . SVG Version: 6.00 Build 0)  -->
<svg version="1.1" xmlns="http://www.w3.org/2000/svg" xmlns:xlink="http://www.w3.org/1999/xlink" x="0px" y="0px"
	 viewBox="0 0 500 500" style="enable-background:new 0 0 500 500;" xml:space="preserve">
<style type="text/css">
	.st0{display:none;}
	.st1{fill:none;}
	.st2{fill:#231815;}
	.st3{fill:#050202;}
	.st4{display:inline;fill:#231815;}
	.st5{display:none;fill:#D2D2D2;}
	.st6{fill:#D2D2D2;}
	.st7{fill:#E3DFDE;}
	.st8{fill:#938985;}
</style>
<g id="레이어_4" class="st0">
</g>
<g id="레이어_5" class="st0">
</g>
<g id="레이어_10">
</g>
<g id="레이어_3">
	<g>
		<path class="st1" d="M269.87,20H220l15,45.75l-24.93,76.02c-32.56,7.06-61.96,22.59-85.8,44.15l14.26,43.5
			c26.15-44.05,69.82-76.47,121.41-87.66l24.93-76.02L269.87,20z"/>
		<path class="st2" d="M235,65.75L220,20H69.87l54.4,165.93c23.84-21.56,53.24-37.09,85.8-44.15L235,65.75z"/>
	</g>
	<g id="레이어_8">
		<path class="st3" d="M209.9,141.82L169.95,20h-49.92l45.15,137.77C179.18,150.66,194.16,145.24,209.9,141.82z"/>
	</g>
</g>
<g id="레이어_7" class="st0">
	<path class="st4" d="M210.07,141.77L235,65.75L220,20H20l68.67,209.43C114.82,185.38,158.48,152.96,210.07,141.77z"/>
</g>
<g id="레이어_2">
	<path class="st2" d="M250,137.5c48.29,0,92.29,18.27,125.52,48.26L429.87,20H280l-38.59,117.7
		C244.26,137.58,247.12,137.5,250,137.5z"/>
	<g>
		<path class="st3" d="M329.82,20l-39.87,121.77c15.81,3.43,30.86,8.87,44.91,16.01L380.06,20H329.82z"/>
	</g>
</g>
<g id="레이어_6" class="st0">
	<path class="st4" d="M250,137.5c68.64,0,128.66,36.9,161.33,91.93L480,20H280l-38.59,117.7C244.26,137.58,247.12,137.5,250,137.5z"
		/>
</g>
<g id="레이어_1">
	<circle class="st5" cx="250" cy="325" r="162.5"/>
	<circle class="st6" cx="250" cy="325" r="162.5"/>
	<g id="레이어_9">
		<g>
			<path class="st7" d="M411.95,338.34l-148.4,148.59C342.56,480.41,405.53,417.37,411.95,338.34z"/>
			<path class="st7" d="M178.77,471.09c11.64,5.68,24.05,10.02,37.05,12.8l193.09-192.96c-2.8-13.14-7.2-25.7-12.97-37.45
				L178.77,471.09z"/>
			<path class="st7" d="M237.09,163.01c-79.41,6.24-142.77,69.57-149.07,148.96L237.09,163.01z"/>
		</g>
	</g>
	<g>
		<path class="st8" d="M233.26,377.78h60.94v22.95h-89.75v-10.84c0-7.75,1.32-14.89,3.96-21.44s6.41-12.66,11.33-18.36
			c4.92-5.7,15.25-14.44,31.01-26.22c6.12-4.56,10.51-8.92,13.18-13.09c2.67-4.17,4-8.82,4-13.96c0-6.38-1.87-11.34-5.62-14.89
			c-3.74-3.55-9.55-5.32-17.43-5.32c-12.3,0-24.12,4.88-35.45,14.65v-24.51c11.59-8.07,24.71-12.11,39.36-12.11
			c14.84,0,26.32,3.61,34.42,10.84s12.16,17.22,12.16,29.98c0,6.58-1.06,12.4-3.17,17.48c-2.12,5.08-4.92,9.68-8.4,13.82
			c-3.48,4.13-7.49,7.98-12.01,11.52c-4.53,3.55-9.16,7.08-13.92,10.6c-8.79,6.51-15.09,12.08-18.9,16.7
			C235.16,370.19,233.26,374.26,233.26,377.78z"/>
	</g>
</g>
</svg>
