<?xml version="1.0" encoding="utf-8"?>
<!-- Generator: Adobe Illustrator 25.2.3, SVG Export Plug-In . SVG Version: 6.00 Build 0)  -->
<svg version="1.1" xmlns="http://www.w3.org/2000/svg" xmlns:xlink="http://www.w3.org/1999/xlink" x="0px" y="0px"
	 viewBox="0 0 500 500" style="enable-background:new 0 0 500 500;" xml:space="preserve">
<style type="text/css">
	.st0{display:none;}
	.st1{fill:none;}
	.st2{fill:#231815;}
	.st3{display:inline;fill:#231815;}
	.st4{fill:#050202;}
	.st5{fill:#FFC814;}
	.st6{fill:#FED826;}
	.st7{display:inline;fill:none;}
	.st8{display:inline;fill:#FED826;}
	.st9{font-family:'MalgunGothicBold';}
	.st10{font-size:200px;}
	.st11{display:inline;fill:#B48214;}
	.st12{fill:#B48214;}
</style>
<g id="레이어_4" class="st0">
</g>
<g id="레이어_5" class="st0">
</g>
<g id="레이어_10">
</g>
<g id="레이어_3">
	<g>
		<path class="st1" d="M269.87,20H220l15,45.75l-24.93,76.02c-32.56,7.06-61.96,22.59-85.8,44.15l14.26,43.5
			c26.15-44.05,69.82-76.47,121.41-87.66l24.93-76.02L269.87,20z"/>
		<path class="st2" d="M235,65.75L220,20H69.87l54.4,165.93c23.84-21.56,53.24-37.09,85.8-44.15L235,65.75z"/>
	</g>
	<g id="레이어_8">
		<path class="st2" d="M209.9,141.82L169.95,20h-49.92l45.15,137.77C179.18,150.66,194.16,145.24,209.9,141.82z"/>
	</g>
</g>
<g id="레이어_7" class="st0">
	<path class="st3" d="M210.07,141.77L235,65.75L220,20H20l68.67,209.43C114.82,185.38,158.48,152.96,210.07,141.77z"/>
</g>
<g id="레이어_2">
	<path class="st2" d="M250,137.5c48.29,0,92.29,18.27,125.52,48.26L429.87,20H280l-38.59,117.7
		C244.26,137.58,247.12,137.5,250,137.5z"/>
	<g>
		<path class="st4" d="M329.82,20l-39.87,121.77c15.81,3.43,30.86,8.87,44.91,16.01L380.06,20H329.82z"/>
	</g>
</g>
<g id="레이어_6" class="st0">
	<path class="st3" d="M250,137.5c68.64,0,128.66,36.9,161.33,91.93L480,20H280l-38.59,117.7C244.26,137.58,247.12,137.5,250,137.5z"
		/>
</g>
<g id="레이어_1">
	<circle class="st5" cx="250" cy="325" r="162.5"/>
	<path class="st6" d="M408.91,290.93L215.82,483.89c11.02,2.36,22.45,3.61,34.18,3.61c4.37,0,8.7-0.18,12.99-0.52l149.02-149.32
		c0.32-4.18,0.49-8.4,0.49-12.66C412.5,313.31,411.26,301.92,408.91,290.93z"/>
	<path class="st6" d="M250,162.5c-89.75,0-162.5,72.75-162.5,162.5c0,50.39,22.94,95.43,58.95,125.24l221.6-236.9
		C338.43,182.03,296.5,162.5,250,162.5z"/>
	<g class="st0">
		<rect x="99.9" y="161.27" class="st7" width="300.02" height="300.7"/>
		<text transform="matrix(1 0 0 1 191.9492 400.7266)" class="st8 st9 st10">1</text>
		<rect x="99.9" y="161.27" class="st7" width="300.02" height="300.7"/>
		<text transform="matrix(1 0 0 1 191.9492 400.7266)" class="st11 st9 st10">1</text>
	</g>
	<g>
		<g>
			<path class="st6" d="M271.15,254.63v146.09H243.9V287.74c-3.06,2.8-7.39,5.4-12.99,7.81c-5.6,2.41-11.43,3.97-17.48,4.69v-24.12
				c14.32-4.3,27.83-11.46,40.53-21.48H271.15z"/>
		</g>
		<g>
			<path class="st12" d="M271.15,254.63v146.09H243.9V287.74c-3.06,2.8-7.39,5.4-12.99,7.81c-5.6,2.41-11.43,3.97-17.48,4.69v-24.12
				c14.32-4.3,27.83-11.46,40.53-21.48H271.15z"/>
		</g>
	</g>
</g>
</svg>
